<?xml version="1.0" encoding="UTF-8"?> <svg xmlns="http://www.w3.org/2000/svg" width="183" height="37" viewBox="0 0 183 37" fill="none"> <path d="M18 36.9351C27.9412 36.9351 36.0001 28.8762 36.0001 18.9351C36.0001 8.99395 27.9412 0.935059 18 0.935059C8.05889 0.935059 0 8.99395 0 18.9351C0 28.8762 8.05889 36.9351 18 36.9351Z" fill="#F05F50"></path> <path d="M32.1189 13.5563H30.9939V14.6813H32.1189V13.5563Z" fill="#183651"></path> <path d="M32.1189 17.4376H30.9939V18.5626H32.1189V17.4376Z" fill="#183651"></path> <path d="M32.1189 21.3187H30.9939V22.4437H32.1189V21.3187Z" fill="#183651"></path> <path d="M5.00636 13.5563H3.88135V14.6813H5.00636V13.5563Z" fill="#183651"></path> <path d="M5.00636 17.4376H3.88135V18.5626H5.00636V17.4376Z" fill="#183651"></path> <path d="M5.00636 21.3187H3.88135V22.4437H5.00636V21.3187Z" fill="#183651"></path> <path d="M24.3563 0.5625C23.0063 0.5625 21.8814 1.68751 21.8814 3.03747V17.3813L32.2313 32.2313C33.1876 33.5813 32.2313 35.4375 30.5438 35.4375H5.45629C3.82505 35.4375 2.86878 33.5812 3.76877 32.2313L14.1188 17.3813V3.03747C14.1188 1.68744 12.9937 0.5625 11.6438 0.5625" fill="white"></path> <path d="M30.5439 36H5.45634C4.50007 36 3.60008 35.4375 3.15012 34.5938C2.70008 33.75 2.75635 32.6812 3.31886 31.8938L13.6126 17.2125V3.03747C13.6126 1.96873 12.7689 1.12494 11.7001 1.12494C11.3626 1.12494 11.1376 0.899923 11.1376 0.562434C11.1376 0.224945 11.3626 0 11.7001 0C13.3876 0 14.7376 1.35003 14.7376 3.03747V17.3813C14.7376 17.4937 14.6813 17.6063 14.6251 17.7187L4.21885 32.5688C3.88137 33.0188 3.88137 33.5812 4.10638 34.0875C4.3876 34.5938 4.83763 34.8751 5.40014 34.8751H30.4877C31.0502 34.8751 31.5564 34.5938 31.7814 34.0875C32.0626 33.5813 32.0064 33.0188 31.6689 32.5688L21.3751 17.7187C21.3188 17.6063 21.2626 17.4937 21.2626 17.3813V3.03747C21.2626 1.35003 22.6126 0 24.3001 0C24.6376 0 24.8626 0.225017 24.8626 0.562506C24.8626 0.899995 24.6376 1.12501 24.3001 1.12501C23.2314 1.12501 22.3876 1.96873 22.3876 3.03754V17.2125L32.6813 31.8938C33.2438 32.6813 33.3001 33.6938 32.8501 34.5938C32.4001 35.4375 31.5001 36 30.5439 36Z" fill="#183651"></path> <path d="M22.8939 23.175H13.1626L6.30016 32.9063C6.30016 32.9063 6.24388 32.9625 6.30016 33.075C6.35643 33.1313 6.41263 33.1313 6.41263 33.1313H29.5876C29.6439 33.1313 29.6439 33.1313 29.7001 33.075C29.7563 33.0187 29.7001 32.9625 29.7001 32.9063L22.8939 23.175Z" fill="#E1E6E8"></path> <path d="M15.5813 10.0688H14.1751C13.8376 10.0688 13.6125 9.84378 13.6125 9.50629C13.6125 9.1688 13.8376 8.94379 14.1751 8.94379H15.5813C15.9188 8.94379 16.1438 9.1688 16.1438 9.50629C16.1438 9.78751 15.9188 10.0688 15.5813 10.0688Z" fill="#183651"></path> <path d="M15.5813 6.97505H14.1751C13.8376 6.97505 13.6125 6.75003 13.6125 6.41254C13.6125 6.07505 13.8376 5.85004 14.1751 5.85004H15.5813C15.9188 5.85004 16.1438 6.07505 16.1438 6.41254C16.1438 6.75003 15.9188 6.97505 15.5813 6.97505Z" fill="#183651"></path> <path d="M15.5813 13.3876H14.1751C13.8376 13.3876 13.6125 13.1626 13.6125 12.8251C13.6125 12.4876 13.8376 12.2626 14.1751 12.2626H15.5813C15.9188 12.2626 16.1438 12.4876 16.1438 12.8251C16.1438 13.1626 15.9188 13.3876 15.5813 13.3876Z" fill="#183651"></path> <path d="M15.5813 16.7625H14.1751C13.8376 16.7625 13.6125 16.5375 13.6125 16.2C13.6125 15.8625 13.8376 15.6375 14.1751 15.6375H15.5813C15.9188 15.6375 16.1438 15.8625 16.1438 16.2C16.1438 16.4813 15.9188 16.7625 15.5813 16.7625Z" fill="#183651"></path> <path d="M15.5814 20.0812H12.7127C12.3752 20.0812 12.1501 19.8562 12.1501 19.5187C12.1501 19.1813 12.3752 18.9562 12.7127 18.9562H15.5814C15.9189 18.9562 16.1439 19.1813 16.1439 19.5187C16.1439 19.8 15.9189 20.0812 15.5814 20.0812Z" fill="#183651"></path> <path d="M22.7812 30.9938C23.5268 30.9938 24.1312 30.3894 24.1312 29.6438C24.1312 28.8982 23.5268 28.2938 22.7812 28.2938C22.0356 28.2938 21.4312 28.8982 21.4312 29.6438C21.4312 30.3894 22.0356 30.9938 22.7812 30.9938Z" fill="white"></path> <path d="M22.7812 31.5562C21.7124 31.5562 20.8687 30.7125 20.8687 29.6437C20.8687 28.5749 21.7124 27.7311 22.7812 27.7311C23.85 27.7311 24.6937 28.5749 24.6937 29.6437C24.6937 30.7125 23.85 31.5562 22.7812 31.5562ZM22.7812 28.9125C22.3874 28.9125 21.9937 29.25 21.9937 29.7C21.9937 30.0938 22.3312 30.4875 22.7812 30.4875C23.1749 30.4875 23.5687 30.15 23.5687 29.7C23.5687 29.25 23.2312 28.9125 22.7812 28.9125Z" fill="#183651"></path> <path d="M16.7063 28.2937C17.6383 28.2937 18.3938 27.5382 18.3938 26.6062C18.3938 25.6742 17.6383 24.9187 16.7063 24.9187C15.7743 24.9187 15.0188 25.6742 15.0188 26.6062C15.0188 27.5382 15.7743 28.2937 16.7063 28.2937Z" fill="white"></path> <path d="M16.7063 28.8562C15.4688 28.8562 14.4563 27.8438 14.4563 26.6062C14.4563 25.3687 15.4688 24.3562 16.7063 24.3562C17.9439 24.3562 18.9563 25.3687 18.9563 26.6062C18.9563 27.8438 17.9438 28.8562 16.7063 28.8562ZM16.7063 25.4813C16.0875 25.4813 15.5813 25.9875 15.5813 26.6063C15.5813 27.2251 16.0875 27.7313 16.7063 27.7313C17.3251 27.7313 17.8313 27.2251 17.8313 26.6063C17.8313 25.9875 17.325 25.4813 16.7063 25.4813Z" fill="#183651"></path> <path d="M28.9687 10.0688H21.2625V5.85004H28.9687V6.97505H22.3875V8.94378H28.9687V10.0688Z" fill="#183651"></path> <path d="M75.688 28L75.664 16.864L70.144 26.08H68.752L63.232 17.008V28H60.256V11.2H62.824L69.496 22.336L76.048 11.2H78.616L78.64 28H75.688ZM94.0739 24.112H85.6739L84.0179 28H80.8019L88.3619 11.2H91.4339L99.0179 28H95.7539L94.0739 24.112ZM93.0419 21.664L89.8739 14.32L86.7299 21.664H93.0419ZM101.154 11.2H108.498C110.29 11.2 111.882 11.552 113.274 12.256C114.666 12.944 115.746 13.928 116.514 15.208C117.282 16.472 117.666 17.936 117.666 19.6C117.666 21.264 117.282 22.736 116.514 24.016C115.746 25.28 114.666 26.264 113.274 26.968C111.882 27.656 110.29 28 108.498 28H101.154V11.2ZM108.354 25.36C109.586 25.36 110.666 25.128 111.594 24.664C112.538 24.184 113.258 23.512 113.754 22.648C114.266 21.768 114.522 20.752 114.522 19.6C114.522 18.448 114.266 17.44 113.754 16.576C113.258 15.696 112.538 15.024 111.594 14.56C110.666 14.08 109.586 13.84 108.354 13.84H104.274V25.36H108.354ZM124.199 14.368H118.823V11.2H133.463V14.368H128.087V28H124.199V14.368ZM148.562 24.88V28H135.555V11.2H148.251V14.32H139.419V17.968H147.219V20.992H139.419V24.88H148.562ZM157.176 28.288C155.848 28.288 154.56 28.112 153.312 27.76C152.08 27.392 151.088 26.92 150.336 26.344L151.656 23.416C152.376 23.944 153.232 24.368 154.224 24.688C155.216 25.008 156.208 25.168 157.2 25.168C158.304 25.168 159.12 25.008 159.648 24.688C160.176 24.352 160.44 23.912 160.44 23.368C160.44 22.968 160.28 22.64 159.96 22.384C159.656 22.112 159.256 21.896 158.76 21.736C158.28 21.576 157.624 21.4 156.792 21.208C155.512 20.904 154.464 20.6 153.648 20.296C152.832 19.992 152.128 19.504 151.536 18.832C150.96 18.16 150.672 17.264 150.672 16.144C150.672 15.168 150.936 14.288 151.464 13.504C151.992 12.704 152.784 12.072 153.84 11.608C154.912 11.144 156.216 10.912 157.752 10.912C158.824 10.912 159.872 11.04 160.896 11.296C161.92 11.552 162.816 11.92 163.584 12.4L162.384 15.352C160.832 14.472 159.28 14.032 157.728 14.032C156.64 14.032 155.832 14.208 155.304 14.56C154.792 14.912 154.536 15.376 154.536 15.952C154.536 16.528 154.832 16.96 155.424 17.248C156.032 17.52 156.952 17.792 158.184 18.064C159.464 18.368 160.512 18.672 161.328 18.976C162.144 19.28 162.84 19.76 163.416 20.416C164.008 21.072 164.304 21.96 164.304 23.08C164.304 24.04 164.032 24.92 163.488 25.72C162.96 26.504 162.16 27.128 161.088 27.592C160.016 28.056 158.712 28.288 157.176 28.288ZM170.206 14.368H164.83V11.2H179.47V14.368H174.094V28H170.206V14.368Z" fill="#454545"></path> </svg> 